<?xml version='1.0' encoding='UTF-8' standalone='no'?>
<svg
   xmlns:dc="http://purl.org/dc/elements/1.1/"
   xmlns:cc="http://creativecommons.org/ns#"
   xmlns:rdf="http://www.w3.org/1999/02/22-rdf-syntax-ns#"
   xmlns:svg="http://www.w3.org/2000/svg"
   xmlns="http://www.w3.org/2000/svg"
   width="100"
   height="100"
   viewBox="0 0 26.458333 26.458334"
   version="1.1"
   id="svg8">
  <title
     id="title8532">Triangle Emote 2</title>
  <defs
     id="defs2" />
  <metadata
     id="metadata5">
    <rdf:RDF>
      <cc:Work
         rdf:about="">
        <dc:format>image/svg+xml</dc:format>
        <dc:type
           rdf:resource="http://purl.org/dc/dcmitype/StillImage" />
        <dc:title>Triangle Emote 2</dc:title>
        <dc:creator>
          <cc:Agent>
            <dc:title>HiJen14</dc:title>
          </cc:Agent>
        </dc:creator>
        <dc:subject>
          <rdf:Bag>
            <rdf:li>emote emoji smile</rdf:li>
          </rdf:Bag>
        </dc:subject>
        <cc:license
           rdf:resource="" />
        <dc:rights>
          <cc:Agent>
            <dc:title>All rights reserved</dc:title>
          </cc:Agent>
        </dc:rights>
      </cc:Work>
    </rdf:RDF>
  </metadata>
  <g
     style="display:inline"
     id="layer3">
    <g
       transform="translate(-0.02650823,-0.10489837)"
       id="layer2"
       style="display:inline">
      <g
         transform="translate(0,-270.54164)"
         style="display:inline"
         id="g6375">
        <rect
           y="270.54031"
           x="-0.03340869"
           height="26.55991"
           width="26.593317"
           id="rect6273"
           style="opacity:1;fill:#ffe16b;fill-opacity:1;stroke:none"
           transform="translate(0,5.8333334e-6)" />
      </g>
    </g>
  </g>
  <g
     style="display:inline"
     id="layer4">
    <g
       id="layer1"
       transform="translate(0,-270.54165)"
       style="display:inline">
      <g
         transform="translate(0.52916663,1.0583392)"
         style="display:inline"
         id="g6387">
        <path
           id="path4747"
           d="m 3.5677736,274.95533 h 8.6891104 c -3.2143163,1.2568 -4.0999829,4.17691 -4.7076534,7.2956 -2.1806126,-1.93776 -4.1556402,-3.99454 -3.981457,-7.2956 z"
           style="fill:#00b9ff;fill-opacity:1;fill-rule:evenodd;stroke:#000000;stroke-width:0.19499999;stroke-linecap:butt;stroke-linejoin:miter;stroke-miterlimit:4;stroke-dasharray:none;stroke-opacity:1" />
        <path
           id="path4782"
           d="m 7.3340482,278.81433 c -1.3431312,0.79919 -1.7247774,0.26827 -1.7624386,-0.2817 -0.012122,-0.75477 0.059946,-1.31782 0.5291315,-1.86937 0.6363448,-0.73804 1.4369405,-0.28218 1.9151574,0.34415 -0.6634865,0.30038 -1.2041632,0.8796 -0.6818503,1.80693 z"
           style="fill:#000000;fill-rule:evenodd;stroke:none;stroke-width:0.42152336" />
      </g>
      <g
         id="g8530">
        <g
           id="g6406"
           style="display:inline"
           transform="translate(0,5.8333334e-6)">
          <path
             id="path6303"
             d="m 9.9557896,287.34488 6.5854454,-0.03 -3.511094,5.39862 z"
             style="fill:#000000;fill-rule:evenodd;stroke:none;stroke-width:0.21622418px;stroke-linecap:butt;stroke-linejoin:miter;stroke-opacity:1" />
        </g>
        <g
           id="g8523"
           transform="translate(0.08268229,0.11693042)">
          <path
             transform="translate(0,5.8333334e-6)"
             style="display:inline;fill:#ff0303;fill-opacity:1;fill-rule:evenodd;stroke:#000000;stroke-width:0.091;stroke-linecap:butt;stroke-linejoin:miter;stroke-miterlimit:4;stroke-dasharray:none;stroke-opacity:1"
             d="m 12.583637,287.58758 c -0.425468,0.96889 -1.274562,2.68042 0.03093,2.66615 1.224511,-0.0217 2.013314,-1.948 2.356689,-2.67152 -1.478092,0.33721 -1.783985,1.254 -1.783985,1.254 0,0 0.432414,-1.31147 -0.603634,-1.249 z"
             id="path6365" />
          <path
             style="fill:#ff9898;fill-opacity:1;fill-rule:evenodd;stroke:none;stroke-width:0.08312616;stroke-linecap:butt;stroke-linejoin:miter;stroke-miterlimit:4;stroke-dasharray:none;stroke-opacity:1"
             d="m 13.009537,289.93141 c -0.194717,-0.0795 0.6,-0.96137 0.6,-0.96137 l 0.762969,-0.66243 -0.387658,0.67678 c 0,0 -0.736509,1.08528 -0.975311,0.94702 z"
             id="path6423" />
        </g>
      </g>
      <g
         id="g6451">
        <g
           id="g6383"
           style="display:inline"
           transform="translate(0.5291667,1.0583392)">
          <path
             style="fill:#00b9ff;fill-opacity:1;fill-rule:evenodd;stroke:#000000;stroke-width:0.19499999;stroke-linecap:butt;stroke-linejoin:miter;stroke-miterlimit:4;stroke-dasharray:none;stroke-opacity:1"
             d="m 14.373552,274.95533 h 8.689111 c -2.774951,1.58076 -4.066925,4.20833 -4.707654,7.2956 -0.882336,-1.86716 -4.577806,-3.05914 -3.981457,-7.2956 z"
             id="path4747-3" />
          <path
             style="fill:#000000;fill-rule:evenodd;stroke:none;stroke-width:0.42152336"
             d="m 18.446553,278.81433 c -1.343131,0.79919 -1.724778,0.26827 -1.762439,-0.2817 -0.01212,-0.75477 0.05995,-1.31782 0.529132,-1.86937 0.636345,-0.73804 1.436941,-0.28218 1.915158,0.34415 -0.663487,0.30038 -1.204164,0.8796 -0.681851,1.80693 z"
             id="path4782-2" />
        </g>
        <path
           id="path6425"
           d="m 18.580118,282.47096 c 0.237516,-1.18128 0.640975,-2.38967 1.208677,-3.36476 0.67201,-1.15425 1.416865,-2.01043 2.561422,-2.89645 0.182836,4e-4 0.323853,0.002 0.521677,-0.007 -1.348333,0.96129 -2.093143,1.89328 -2.750087,2.95941 -0.828187,1.34402 -1.120705,2.63486 -1.324048,3.60497 z"
           style="display:inline;fill:#9de5ff;fill-opacity:1;fill-rule:evenodd;stroke:none;stroke-width:0.065;stroke-linecap:butt;stroke-linejoin:miter;stroke-miterlimit:4;stroke-dasharray:none;stroke-opacity:1" />
      </g>
      <path
         id="path6425-1"
         d="m 8.7767691,279.12859 c 0.6637418,-1.27827 1.3219889,-2.0562 2.5615099,-2.93637 0.182835,4e-4 0.323852,0.002 0.521676,-0.007 -1.389551,0.88375 -2.1338617,1.7011 -2.7205258,2.87472 -0.7058754,1.4121 -1.0002712,2.84963 -1.2036142,3.81974 l -0.2406903,-0.19987 c 0.2591301,-1.19069 0.3274615,-1.77148 1.0816444,-3.55122 z"
         style="display:inline;fill:#9de5ff;fill-opacity:1;fill-rule:evenodd;stroke:none;stroke-width:0.065;stroke-linecap:butt;stroke-linejoin:miter;stroke-miterlimit:4;stroke-dasharray:none;stroke-opacity:1" />
    </g>
  </g>
</svg>
